<?xml version="1.0" encoding="UTF-8" ?>
<!DOCTYPE svg PUBLIC "-//W3C//DTD SVG 1.1//EN" "http://www.w3.org/Graphics/SVG/1.1/DTD/svg11.dtd">
<svg width="293pt" height="175pt" viewBox="0 0 293 175" version="1.1" xmlns="http://www.w3.org/2000/svg">
<g id="#ffe945ff">
<path fill="#ffe945" opacity="1.00" d=" M 157.58 1.53 C 164.45 -1.38 173.59 0.87 177.22 7.70 C 180.33 13.74 178.80 21.01 174.82 26.25 C 206.50 29.56 236.44 47.23 254.44 73.56 C 264.85 88.47 271.19 106.01 273.42 124.02 C 278.21 124.10 283.39 124.39 287.11 127.83 C 294.91 133.74 294.71 147.09 286.61 152.66 C 281.71 156.84 274.93 155.56 269.02 155.75 C 260.24 155.40 251.43 157.09 242.67 155.77 C 241.99 148.64 238.52 141.58 232.36 137.69 C 228.13 135.35 223.20 133.93 218.36 134.76 C 224.59 136.09 231.28 138.60 234.75 144.32 C 237.65 149.22 239.31 155.46 237.13 160.96 C 234.24 169.96 224.33 175.71 215.10 174.60 C 206.18 173.20 199.51 164.95 198.40 156.22 C 196.28 155.94 194.16 155.70 192.03 155.73 C 177.35 155.80 162.67 155.69 148.00 155.79 C 141.70 156.12 135.37 156.54 129.10 155.52 C 128.38 148.16 124.62 140.63 117.81 137.21 C 114.13 135.18 109.91 134.51 105.75 134.45 C 108.92 135.93 112.45 136.57 115.40 138.53 C 123.24 143.43 126.86 154.46 122.79 162.90 C 119.29 170.15 111.27 175.54 103.04 174.49 C 93.55 173.89 85.77 165.43 84.77 156.16 C 78.86 155.09 72.89 156.66 66.96 155.99 C 60.35 155.30 53.62 156.41 47.06 155.11 C 39.24 153.39 34.29 144.64 35.84 136.96 C 36.66 132.27 39.98 128.26 44.11 126.01 C 47.57 124.25 51.59 124.64 55.25 123.55 C 55.88 117.44 57.20 111.43 58.74 105.50 C 52.18 105.31 45.58 105.92 39.06 105.13 C 34.19 104.53 34.30 95.94 39.09 95.31 C 46.88 94.20 54.78 94.98 62.62 94.75 C 65.01 89.76 67.40 84.77 69.76 79.76 C 53.59 79.18 37.39 79.71 21.22 79.44 C 16.84 79.51 15.15 73.68 17.56 70.56 C 19.60 68.81 22.45 68.78 25.00 68.74 C 42.56 68.77 60.13 68.74 77.69 68.75 C 81.72 63.26 86.74 58.62 91.22 53.51 C 73.11 53.47 55.00 53.65 36.91 53.17 C 34.60 52.54 32.81 50.45 32.76 48.02 C 32.95 45.26 35.17 42.35 38.14 42.51 C 60.45 42.48 82.75 42.51 105.05 42.50 C 107.55 42.50 109.52 40.67 111.72 39.72 C 124.72 32.61 139.10 28.41 153.71 26.26 C 151.95 23.33 149.91 20.38 149.51 16.90 C 148.48 10.73 152.05 4.31 157.58 1.53 M 210.98 50.01 C 225.72 60.23 236.88 75.22 243.40 91.85 C 247.22 101.27 248.34 111.47 249.39 121.49 C 253.82 121.50 258.25 121.51 262.69 121.49 C 262.58 118.35 262.55 115.19 262.10 112.08 C 256.64 78.37 230.32 48.44 196.80 40.56 C 201.25 44.11 206.42 46.61 210.98 50.01 M 101.39 145.55 C 95.75 147.61 93.03 155.44 96.62 160.40 C 99.32 164.98 105.93 165.93 110.29 163.26 C 115.59 160.34 115.88 152.14 111.93 148.00 C 109.40 144.97 104.96 144.93 101.39 145.55 M 213.42 146.30 C 208.81 148.66 207.02 154.97 209.49 159.49 C 212.28 165.73 222.28 166.79 226.11 161.03 C 229.90 156.43 228.20 148.73 222.91 146.03 C 219.87 145.08 216.36 144.97 213.42 146.30 Z" />
<path fill="#ffe945" opacity="1.00" d=" M 3.40 43.33 C 9.18 42.03 15.18 42.54 21.05 42.58 C 24.94 42.67 28.10 47.20 25.93 50.68 C 23.41 54.09 18.69 53.29 14.99 53.50 C 10.71 53.21 5.88 54.50 2.11 51.87 C -0.65 49.58 0.26 44.85 3.40 43.33 Z" />
<path fill="#ffe945" opacity="1.00" d=" M 17.41 95.57 C 20.80 94.54 24.44 94.66 27.88 95.34 C 31.28 96.17 32.24 100.73 30.50 103.45 C 27.49 106.50 22.83 105.37 19.01 105.42 C 13.96 105.31 12.79 97.31 17.41 95.57 Z" />
</g>
</svg>
