<?xml version="1.0" encoding="UTF-8" ?>
<!DOCTYPE svg PUBLIC "-//W3C//DTD SVG 1.1//EN" "http://www.w3.org/Graphics/SVG/1.1/DTD/svg11.dtd">
<svg width="500pt" height="500pt" viewBox="0 0 500 500" version="1.1" xmlns="http://www.w3.org/2000/svg">
<g id="#fe7f01ff">
<path fill="#fe7f01" opacity="1.00" d=" M 224.09 144.01 C 223.86 137.22 230.35 131.40 236.99 131.65 C 243.08 131.73 248.77 136.88 249.09 143.02 C 249.12 145.77 248.58 148.47 248.18 151.18 C 259.12 151.79 270.19 153.29 280.31 157.70 C 298.55 165.28 313.90 179.64 322.53 197.43 C 326.82 206.06 329.38 215.50 330.53 225.05 C 331.09 228.34 329.66 232.11 326.46 233.48 C 322.44 234.99 318.08 235.15 313.86 235.68 C 314.95 232.24 316.09 228.66 315.47 225.01 C 313.30 208.03 305.70 191.60 293.56 179.45 C 287.10 172.69 279.58 166.89 271.16 162.79 C 264.73 159.65 258.02 156.80 250.84 156.00 C 255.79 160.09 261.14 163.73 265.43 168.55 C 280.72 184.96 288.40 207.07 291.17 229.00 C 291.75 232.47 291.20 236.89 287.73 238.67 C 283.44 240.57 278.61 240.53 274.05 241.30 C 244.27 245.39 214.53 249.64 184.76 253.76 C 175.58 255.29 166.26 254.24 157.02 254.59 C 153.79 254.39 149.79 255.30 147.38 252.57 C 144.76 249.84 146.34 244.62 150.16 243.99 C 155.82 243.13 161.60 243.80 167.31 243.64 C 167.25 240.17 167.02 236.70 166.75 233.25 C 155.84 233.15 144.92 233.20 134.00 233.25 C 131.15 233.21 128.23 233.24 125.48 232.39 C 121.37 231.27 120.91 224.49 124.74 222.75 C 127.32 221.60 130.22 221.72 132.99 221.68 C 144.52 221.79 156.06 221.75 167.60 221.69 C 168.30 218.23 169.05 214.79 169.81 211.34 C 163.18 211.09 156.56 211.47 149.94 211.20 C 147.52 211.25 145.06 209.97 144.19 207.63 C 142.91 204.65 145.18 200.90 148.38 200.56 C 156.22 199.75 164.13 200.82 171.98 200.22 C 173.17 200.20 174.04 199.66 174.57 198.59 C 176.41 195.77 177.67 192.61 178.99 189.52 C 171.32 189.60 163.64 189.68 155.97 189.64 C 153.21 189.52 149.54 189.50 148.24 186.54 C 146.18 183.19 149.22 178.74 152.96 178.75 C 164.43 178.04 176.00 179.23 187.45 178.26 C 191.63 175.60 194.85 171.71 198.36 168.26 C 185.22 167.94 172.07 168.29 158.92 168.14 C 156.32 167.98 153.08 167.85 151.58 165.35 C 149.99 163.02 150.76 159.59 153.12 158.10 C 155.45 156.65 158.33 156.81 160.97 156.72 C 179.33 156.84 197.70 156.73 216.06 156.84 C 220.03 157.00 223.80 155.61 227.44 154.20 C 225.78 151.03 223.88 147.72 224.09 144.01 Z" />
<path fill="#fe7f01" opacity="1.00" d=" M 125.35 179.24 C 129.60 178.12 134.36 178.07 138.60 179.29 C 142.71 180.76 142.96 187.37 138.74 188.83 C 134.65 190.05 130.23 189.86 126.06 189.20 C 121.16 188.67 120.70 180.55 125.35 179.24 Z" />
<path fill="#fe7f01" opacity="1.00" d=" M 106.39 200.58 C 114.49 199.98 122.69 200.22 130.81 200.42 C 134.74 200.31 137.87 205.06 135.54 208.45 C 134.15 211.21 130.70 211.13 128.06 211.26 C 122.02 211.30 115.98 211.30 109.94 211.30 C 107.74 211.16 105.05 211.31 103.50 209.44 C 100.89 206.63 102.41 201.11 106.39 200.58 Z" />
<path fill="#fe7f01" opacity="1.00" d=" M 119.49 244.40 C 123.38 243.08 128.29 242.77 131.86 245.15 C 135.52 247.76 133.42 254.13 128.99 254.35 C 125.06 254.67 119.58 255.52 117.19 251.54 C 115.50 249.07 116.95 245.61 119.49 244.40 Z" />
</g>
<g id="#333333ff">
<path fill="#333333" opacity="1.00" d=" M 158.61 267.42 C 159.89 263.04 164.60 260.74 168.93 260.95 C 184.62 261.19 200.32 261.19 216.01 260.97 C 251.34 261.51 286.66 260.40 322.00 261.07 C 327.87 261.19 334.16 259.88 339.71 262.34 C 344.71 264.90 344.52 271.18 344.51 276.01 C 344.31 280.65 345.23 286.10 341.86 289.88 C 339.98 292.21 336.88 292.76 334.05 292.79 C 326.87 292.93 319.68 292.75 312.50 292.75 C 311.90 286.74 310.62 280.30 306.01 276.00 C 298.05 267.71 283.19 267.94 275.59 276.59 C 271.34 280.87 270.23 287.00 269.67 292.76 C 257.32 292.85 244.97 292.89 232.63 292.73 C 232.29 287.09 231.19 281.11 227.12 276.89 C 222.52 271.50 215.03 269.08 208.10 270.14 C 201.18 271.07 194.97 275.85 192.22 282.26 C 190.77 285.58 190.34 289.22 189.79 292.77 C 181.89 292.71 173.97 293.17 166.08 292.63 C 161.69 292.29 158.38 288.18 158.09 283.94 C 157.59 278.47 157.34 272.81 158.61 267.42 Z" />
<path fill="#333333" opacity="1.00" d=" M 205.42 274.40 C 215.97 270.22 228.79 278.70 228.89 290.06 C 229.83 299.92 220.86 308.89 211.10 308.61 C 202.56 308.55 194.79 301.50 193.94 293.00 C 192.81 285.10 197.93 276.99 205.42 274.40 M 208.42 285.25 C 203.92 287.20 203.93 294.75 208.44 296.68 C 212.41 298.97 218.01 295.66 217.58 291.00 C 218.11 286.28 212.41 282.94 208.42 285.25 Z" />
<path fill="#333333" opacity="1.00" d=" M 285.38 274.32 C 295.32 270.59 307.08 277.86 308.50 288.28 C 310.15 297.45 303.18 306.93 293.99 308.25 C 285.47 309.90 276.37 304.18 274.18 295.78 C 271.49 287.11 276.79 277.11 285.38 274.32 M 291.17 284.49 C 286.69 284.37 283.11 289.50 285.23 293.59 C 286.92 297.88 293.32 298.76 296.04 294.99 C 299.43 291.19 296.30 284.27 291.17 284.49 Z" />
<path fill="#333333" opacity="1.00" d=" M 185.47 335.56 C 192.54 333.88 199.75 339.96 200.14 347.02 C 200.82 353.81 194.97 360.63 188.00 360.37 C 182.08 360.70 176.66 355.96 175.68 350.21 C 174.21 343.72 179.02 336.81 185.47 335.56 M 185.39 340.34 C 178.84 342.18 178.38 352.80 184.71 355.22 C 189.57 357.43 195.86 353.50 195.43 348.01 C 195.96 342.77 190.23 338.68 185.39 340.34 Z" />
<path fill="#333333" opacity="1.00" d=" M 133.34 336.18 C 137.32 336.08 141.31 336.07 145.29 336.14 C 145.22 337.60 145.15 339.07 145.08 340.54 C 142.71 340.65 140.33 340.77 137.97 340.91 C 138.03 342.14 138.09 343.36 138.15 344.59 C 140.51 344.69 142.86 344.79 145.21 344.91 C 145.20 346.24 145.19 347.57 145.18 348.91 C 142.87 349.05 140.56 349.19 138.24 349.32 C 138.16 352.80 138.03 356.29 137.82 359.78 C 136.34 359.76 134.86 359.75 133.38 359.74 C 133.40 351.88 133.44 344.03 133.34 336.18 Z" />
<path fill="#333333" opacity="1.00" d=" M 155.41 336.41 C 162.16 333.26 170.88 337.74 172.23 345.06 C 174.04 351.87 169.10 359.57 162.00 360.28 C 155.51 361.42 148.92 356.38 148.11 349.90 C 147.16 344.43 150.27 338.56 155.41 336.41 M 157.44 340.47 C 151.30 342.60 150.89 352.56 156.93 355.08 C 161.80 357.59 168.36 353.61 167.82 348.00 C 168.41 342.60 162.34 338.42 157.44 340.47 Z" />
<path fill="#333333" opacity="1.00" d=" M 204.20 336.14 C 208.19 336.17 212.34 335.62 216.20 336.87 C 224.68 340.21 225.32 354.05 217.61 358.57 C 213.43 360.43 208.67 359.55 204.23 359.73 C 204.13 351.87 204.17 344.00 204.20 336.14 M 208.90 340.42 C 208.68 345.40 208.69 350.38 208.88 355.36 C 211.06 355.12 213.34 355.21 215.42 354.41 C 218.85 351.91 219.10 346.49 216.86 343.11 C 215.10 340.54 211.59 340.93 208.90 340.42 Z" />
<path fill="#333333" opacity="1.00" d=" M 233.07 336.16 C 237.89 336.20 243.48 335.17 247.52 338.50 C 253.96 343.95 251.88 355.90 244.04 358.94 C 239.53 360.26 234.75 359.67 230.12 359.69 C 230.74 351.80 232.05 344.00 233.07 336.16 M 235.19 338.66 C 234.50 344.87 233.56 351.05 232.96 357.27 C 236.44 357.28 240.08 357.67 243.41 356.41 C 249.32 353.84 250.91 344.37 245.69 340.35 C 242.67 338.12 238.70 338.71 235.19 338.66 Z" />
<path fill="#333333" opacity="1.00" d=" M 257.51 336.29 C 262.19 336.01 266.90 335.87 271.55 336.61 C 268.38 339.60 263.78 338.49 259.85 338.78 C 259.54 341.13 259.24 343.49 258.95 345.85 C 262.55 346.00 266.15 346.13 269.73 346.59 C 266.74 349.55 262.21 348.21 258.44 348.52 C 258.10 351.43 257.77 354.34 257.48 357.26 C 260.89 357.34 264.31 357.38 267.73 357.42 C 267.74 357.98 267.74 359.10 267.75 359.66 C 263.26 359.75 258.77 359.74 254.28 359.66 C 255.44 351.88 256.50 344.09 257.51 336.29 Z" />
<path fill="#333333" opacity="1.00" d=" M 274.85 339.00 C 274.97 337.44 276.24 336.45 277.19 335.35 C 277.58 342.70 275.63 349.89 275.09 357.18 C 278.31 357.31 281.53 357.40 284.76 357.46 C 284.76 358.01 284.77 359.13 284.78 359.68 C 280.55 359.76 276.33 359.76 272.11 359.67 C 272.97 352.77 273.72 345.86 274.85 339.00 Z" />
<path fill="#333333" opacity="1.00" d=" M 289.64 339.70 C 289.75 337.89 291.00 336.58 292.18 335.34 C 292.42 343.49 290.39 351.47 289.54 359.53 C 288.92 359.59 287.70 359.72 287.08 359.78 C 287.80 353.07 288.60 346.37 289.64 339.70 Z" />
<path fill="#333333" opacity="1.00" d=" M 296.12 335.46 C 297.44 336.62 298.88 337.81 299.34 339.60 C 300.91 344.29 302.13 349.11 304.08 353.68 C 307.25 349.48 309.67 344.81 312.27 340.26 C 313.34 338.23 315.15 336.78 317.03 335.55 C 316.05 338.53 314.66 341.36 313.02 344.04 C 309.79 349.38 306.87 354.90 303.34 360.04 C 300.84 351.88 297.36 343.94 296.12 335.46 Z" />
<path fill="#333333" opacity="1.00" d=" M 320.59 336.29 C 324.98 336.01 329.38 336.00 333.77 336.23 C 333.75 336.81 333.71 337.97 333.70 338.55 C 330.09 338.58 326.49 338.63 322.89 338.77 C 322.62 341.14 322.35 343.52 322.08 345.90 C 325.41 346.08 328.75 346.18 332.09 346.26 C 332.09 346.78 332.09 347.81 332.09 348.32 C 328.71 348.38 325.34 348.42 321.98 348.39 C 321.31 351.33 320.74 354.29 320.17 357.25 C 323.70 357.35 327.23 357.40 330.77 357.42 C 330.78 357.98 330.79 359.10 330.79 359.67 C 326.46 359.74 322.12 359.74 317.79 359.72 C 318.33 351.86 319.74 344.11 320.59 336.29 Z" />
<path fill="#333333" opacity="1.00" d=" M 338.61 336.29 C 342.18 336.18 345.90 335.57 349.37 336.69 C 352.98 338.07 353.24 343.26 350.93 345.90 C 349.18 347.49 346.94 348.35 344.89 349.44 C 347.06 352.97 349.32 356.47 350.91 360.32 C 345.67 357.95 344.27 351.76 340.15 348.11 C 339.02 352.30 339.38 357.14 336.36 360.59 C 335.69 352.41 337.98 344.40 338.61 336.29 M 340.90 338.59 C 340.61 341.12 340.33 343.65 340.07 346.20 C 342.53 346.10 345.11 346.39 347.46 345.52 C 349.92 344.48 349.47 341.43 349.95 339.29 C 346.95 338.86 343.92 338.63 340.90 338.59 Z" />
<path fill="#333333" opacity="1.00" d=" M 356.08 335.47 C 359.81 338.04 361.14 342.52 363.16 346.34 C 366.68 342.66 369.00 337.43 374.11 335.66 C 372.16 339.66 369.09 342.91 366.36 346.37 C 363.20 350.05 363.38 355.17 362.58 359.68 C 362.00 359.70 360.84 359.74 360.25 359.76 C 360.67 356.22 361.54 352.65 361.13 349.08 C 359.84 344.40 356.92 340.31 356.08 335.47 Z" />
</g>
</svg>
